# xmcd CD database file
#
# Track frame offsets:
#	150
#	23122
#	42780
#	65310
#	82645
#	101807
#	127232
#	154365
#	174062
#	190777
#	216582
#
# Disc length: 3078 seconds
#
# Revision: 0
# Processed by: cddbd v1.5.1PL0 Copyright (c) Steve Scherf et al.
# Submitted via: CDex 1.51
#
DISCID=8e0c040b
DTITLE=TRICERATOPS - THE 7TH VOYAGE OF TRICERATOPS
DYEAR=2005
DGENRE=Rock
TTITLE0=Favorite St．
TTITLE1=Parachuter
TTITLE2=Ace
TTITLE3=エベレスト
TTITLE4=The Captain
TTITLE5=Now I'm Here
TTITLE6=It
TTITLE7=Big Bag Blues
TTITLE8=Jewel
TTITLE9=ラストバラード
TTITLE10=Any Day
EXTD=YEAR: 2005
EXTT0=
EXTT1=
EXTT2=
EXTT3=
EXTT4=
EXTT5=
EXTT6=
EXTT7=
EXTT8=
EXTT9=
EXTT10=
PLAYORDER=
